<?xml version="1.0" encoding="UTF-8"?>
<svg xmlns="http://www.w3.org/2000/svg" xmlns:xlink="http://www.w3.org/1999/xlink" width="50px" height="50px" viewBox="0 0 50 50" version="1.1">
<g id="surface1">
<path style="fill:none;stroke-width:1.5;stroke-linecap:round;stroke-linejoin:miter;stroke:rgb(0%,0%,0%);stroke-opacity:1;stroke-miterlimit:4;" d="M 17.833125 18 C 20.13375 18 21.999375 16.096875 21.999375 13.749375 L 21.999375 5.25 C 21.999375 2.9025 20.13375 0.999375 17.833125 0.999375 L 11.1675 0.999375 C 8.865 0.999375 6.999375 2.9025 6.999375 5.25 " transform="matrix(2.083333,0,0,2.083333,0,0)"/>
<path style="fill:none;stroke-width:1.5;stroke-linecap:butt;stroke-linejoin:miter;stroke:rgb(0%,0%,0%);stroke-opacity:1;stroke-miterlimit:4;" d="M 2.000625 10.250625 C 2.000625 7.903125 3.86625 6 6.166875 6 L 12.8325 6 C 15.135 6 17.000625 7.903125 17.000625 10.250625 L 17.000625 18.75 C 17.000625 21.0975 15.135 23.000625 12.8325 23.000625 L 6.166875 23.000625 C 3.86625 23.000625 2.000625 21.0975 2.000625 18.75 Z M 2.000625 10.250625 " transform="matrix(2.083333,0,0,2.083333,0,0)"/>
</g>
</svg>
