<?xml version="1.0" encoding="UTF-8"?>
<svg xmlns="http://www.w3.org/2000/svg" xmlns:xlink="http://www.w3.org/1999/xlink" width="50px" height="50px" viewBox="0 0 50 50" version="1.1">
<g id="surface1">
<path style=" stroke:none;fill-rule:nonzero;fill:rgb(3.529412%,14.117647%,29.411765%);fill-opacity:1;" d="M 35.417969 6.25 C 37.71875 6.25 39.582031 8.117188 39.582031 10.417969 L 39.582031 39.582031 L 41.667969 39.582031 C 42.816406 39.582031 43.75 40.515625 43.75 41.667969 C 43.75 42.816406 42.816406 43.75 41.667969 43.75 L 8.332031 43.75 C 7.183594 43.75 6.25 42.816406 6.25 41.667969 C 6.25 40.515625 7.183594 39.582031 8.332031 39.582031 L 10.417969 39.582031 L 10.417969 10.417969 C 10.417969 8.117188 12.28125 6.25 14.582031 6.25 Z M 35.417969 10.417969 L 14.582031 10.417969 L 14.582031 39.582031 L 35.417969 39.582031 Z M 30.207031 22.917969 C 31.933594 22.917969 33.332031 24.316406 33.332031 26.042969 C 33.332031 27.765625 31.933594 29.167969 30.207031 29.167969 C 28.484375 29.167969 27.082031 27.765625 27.082031 26.042969 C 27.082031 24.316406 28.484375 22.917969 30.207031 22.917969 Z M 30.207031 22.917969 "/>
</g>
</svg>
