<?xml version="1.0" encoding="UTF-8"?>
<svg xmlns="http://www.w3.org/2000/svg" xmlns:xlink="http://www.w3.org/1999/xlink" width="50px" height="50px" viewBox="0 0 52 52" version="1.1">
<g id="surface1">
<path style=" stroke:none;fill-rule:nonzero;fill:rgb(0%,0%,0%);fill-opacity:1;" d="M 31.289062 20.710938 C 30.164062 20.710938 29.25 21.628906 29.25 22.753906 C 29.25 23.878906 30.164062 24.796875 31.289062 24.796875 C 32.417969 24.796875 33.335938 23.878906 33.335938 22.753906 C 33.335938 21.625 32.417969 20.710938 31.289062 20.710938 Z M 35.75 25.175781 C 34.625 25.175781 33.710938 26.085938 33.710938 27.21875 C 33.710938 28.339844 34.625 29.25 35.75 29.25 C 36.878906 29.25 37.796875 28.339844 37.796875 27.21875 C 37.796875 26.085938 36.878906 25.175781 35.75 25.175781 Z M 13.734375 18.726562 C 11.535156 18.726562 9.75 20.53125 9.75 22.75 C 9.75 24.972656 11.535156 26.773438 13.734375 26.773438 C 15.933594 26.773438 17.722656 24.972656 17.722656 22.75 C 17.722656 20.53125 15.933594 18.726562 13.734375 18.726562 Z M 13.722656 24.726562 C 12.636719 24.726562 11.757812 23.839844 11.757812 22.75 C 11.757812 21.660156 12.636719 20.777344 13.722656 20.777344 C 14.804688 20.777344 15.683594 21.660156 15.683594 22.75 C 15.683594 23.839844 14.804688 24.726562 13.722656 24.726562 Z M 35.75 16.25 C 34.625 16.25 33.710938 17.164062 33.710938 18.292969 C 33.710938 19.417969 34.625 20.332031 35.75 20.332031 C 36.878906 20.332031 37.796875 19.417969 37.796875 18.292969 C 37.796875 17.164062 36.878906 16.25 35.75 16.25 Z M 40.214844 20.710938 C 39.085938 20.710938 38.171875 21.628906 38.171875 22.753906 C 38.171875 23.878906 39.085938 24.796875 40.214844 24.796875 C 41.335938 24.796875 42.25 23.878906 42.25 22.753906 C 42.25 21.625 41.335938 20.710938 40.214844 20.710938 Z M 40.214844 20.710938 "/>
<path style=" stroke:none;fill-rule:nonzero;fill:rgb(0%,0%,0%);fill-opacity:1;" d="M 47.355469 25.277344 C 45.207031 16.289062 42.925781 11.515625 38.371094 10.160156 C 37.382812 9.867188 36.535156 9.75 35.757812 9.75 C 32.953125 9.75 30.992188 11.242188 26 11.242188 C 21.003906 11.242188 19.042969 9.75 16.242188 9.75 C 15.464844 9.75 14.621094 9.867188 13.632812 10.160156 C 9.074219 11.515625 6.792969 16.289062 4.648438 25.277344 C 2.496094 34.261719 2.886719 40.75 5.425781 41.960938 C 5.839844 42.160156 6.261719 42.25 6.691406 42.25 C 8.894531 42.25 11.277344 39.828125 13.5625 36.964844 C 16.167969 33.703125 16.824219 33.617188 24.761719 33.617188 L 27.234375 33.617188 C 35.171875 33.617188 35.832031 33.703125 38.4375 36.964844 C 40.722656 39.828125 43.105469 42.246094 45.308594 42.246094 C 45.738281 42.246094 46.160156 42.15625 46.574219 41.957031 C 49.113281 40.746094 49.503906 34.261719 47.355469 25.277344 Z M 45.875 40.496094 C 45.6875 40.582031 45.507812 40.625 45.308594 40.625 C 44.695312 40.625 43.878906 40.214844 42.941406 39.4375 C 42.011719 38.660156 40.980469 37.554688 39.707031 35.957031 C 38.390625 34.3125 37.300781 33.089844 35.285156 32.511719 C 33.59375 32.023438 31.363281 31.992188 27.234375 31.992188 L 24.761719 31.992188 C 20.636719 31.992188 18.40625 32.023438 16.714844 32.511719 C 14.695312 33.089844 13.609375 34.308594 12.292969 35.953125 C 11.019531 37.550781 9.988281 38.660156 9.058594 39.433594 C 8.121094 40.210938 7.304688 40.625 6.691406 40.625 C 6.496094 40.625 6.3125 40.582031 6.125 40.492188 C 5.15625 40.03125 3.832031 35.652344 6.226562 25.652344 C 8.398438 16.554688 10.53125 12.777344 14.09375 11.71875 C 14.871094 11.488281 15.574219 11.375 16.242188 11.375 C 17.234375 11.375 18.132812 11.609375 19.269531 11.90625 C 20.902344 12.335938 22.933594 12.867188 26 12.867188 C 29.0625 12.867188 31.09375 12.335938 32.726562 11.910156 C 33.863281 11.609375 34.765625 11.375 35.757812 11.375 C 36.429688 11.375 37.132812 11.488281 37.910156 11.71875 C 41.46875 12.777344 43.601562 16.554688 45.777344 25.652344 C 48.164062 35.652344 46.84375 40.03125 45.875 40.496094 Z M 45.875 40.496094 "/>
</g>
</svg>
