<?xml version="1.0" encoding="UTF-8"?>
<svg xmlns="http://www.w3.org/2000/svg" xmlns:xlink="http://www.w3.org/1999/xlink" width="45px" height="45px" viewBox="0 0 45 45" version="1.1">
<g id="surface1">
<path style="fill:none;stroke-width:2;stroke-linecap:round;stroke-linejoin:round;stroke:rgb(0%,0%,0%);stroke-opacity:1;stroke-miterlimit:4;" d="M 12.983333 2.764583 C 12.63125 2.491667 12.45625 2.354167 12.260417 2.302083 C 12.089583 2.25625 11.910417 2.25625 11.739583 2.302083 C 11.54375 2.354167 11.36875 2.491667 11.016667 2.764583 L 4.235417 8.039583 C 3.78125 8.391667 3.55625 8.56875 3.391667 8.789583 C 3.247917 8.985417 3.139583 9.204167 3.075 9.439583 C 3 9.704167 3 9.991667 3 10.564583 L 3 17.8 C 3 18.920833 3 19.48125 3.21875 19.908333 C 3.410417 20.285417 3.716667 20.589583 4.091667 20.78125 C 4.520833 21 5.079167 21 6.2 21 L 8.2 21 C 8.479167 21 8.620833 21 8.727083 20.945833 C 8.820833 20.897917 8.897917 20.820833 8.945833 20.727083 C 9 20.620833 9 20.48125 9 20.2 L 9 13.6 C 9 13.039583 9 12.760417 9.108333 12.545833 C 9.204167 12.358333 9.358333 12.204167 9.545833 12.108333 C 9.760417 12 10.039583 12 10.6 12 L 13.4 12 C 13.960417 12 14.239583 12 14.454167 12.108333 C 14.641667 12.204167 14.795833 12.358333 14.891667 12.545833 C 15 12.760417 15 13.039583 15 13.6 L 15 20.2 C 15 20.48125 15 20.620833 15.054167 20.727083 C 15.102083 20.820833 15.179167 20.897917 15.272917 20.945833 C 15.379167 21 15.520833 21 15.8 21 L 17.8 21 C 18.920833 21 19.479167 21 19.908333 20.78125 C 20.283333 20.589583 20.589583 20.285417 20.78125 19.908333 C 21 19.48125 21 18.920833 21 17.8 L 21 10.564583 C 21 9.991667 21 9.704167 20.925 9.439583 C 20.860417 9.204167 20.752083 8.985417 20.608333 8.789583 C 20.44375 8.56875 20.21875 8.391667 19.764583 8.039583 Z M 12.983333 2.764583 " transform="matrix(1.875,0,0,1.875,0,0)"/>
</g>
</svg>
