<?xml version="1.0" encoding="UTF-8"?>
<svg xmlns="http://www.w3.org/2000/svg" xmlns:xlink="http://www.w3.org/1999/xlink" width="40px" height="40px" viewBox="0 0 40 40" version="1.1">
<g id="surface1">
<path style=" stroke:none;fill-rule:nonzero;fill:rgb(13.333333%,13.333333%,13.333333%);fill-opacity:1;" d="M 20 0 L 19.210938 0.03125 L 18.429688 0.125 L 17.65625 0.277344 L 16.898438 0.488281 L 16.15625 0.761719 L 15.441406 1.089844 L 14.753906 1.472656 L 14.097656 1.910156 L 13.476562 2.394531 L 12.898438 2.929688 L 12.363281 3.507812 L 11.875 4.121094 L 11.4375 4.773438 L 11.050781 5.460938 L 10.71875 6.171875 L 10.449219 6.910156 L 10.234375 7.667969 L 10.078125 8.4375 L 9.988281 9.21875 L 9.957031 10 L 9.988281 11.226562 L 10.074219 12.449219 L 10.226562 13.664062 L 10.4375 14.871094 L 10.707031 16.066406 L 11.035156 17.25 L 11.417969 18.410156 L 11.859375 19.554688 L 12.359375 20.671875 L 12.910156 21.769531 L 13.277344 22.386719 L 13.695312 22.96875 L 13.820312 23.164062 L 13.894531 23.378906 L 13.914062 23.609375 L 13.882812 23.839844 L 13.796875 24.050781 L 13.671875 24.242188 L 13.5 24.394531 L 13.296875 24.507812 L 13.078125 24.574219 L 11.636719 24.839844 L 10.210938 25.152344 L 8.792969 25.511719 L 7.390625 25.921875 L 6.003906 26.382812 L 4.632812 26.890625 L 4.074219 27.140625 L 3.546875 27.445312 L 3.050781 27.804688 L 2.59375 28.207031 L 2.183594 28.65625 L 1.820312 29.140625 L 1.507812 29.664062 L 1.246094 30.214844 L 0.890625 31.15625 L 0.589844 32.113281 L 0.34375 33.085938 L 0.152344 34.070312 L 0.015625 35.0625 L 0 35.472656 L 0.0390625 35.875 L 0.132812 36.269531 L 0.277344 36.648438 L 0.472656 37.003906 L 0.710938 37.332031 L 1 37.621094 L 1.316406 37.871094 L 1.671875 38.074219 L 2.046875 38.234375 L 2.441406 38.332031 L 4.757812 38.75 L 7.085938 39.105469 L 9.421875 39.402344 L 11.765625 39.640625 L 14.113281 39.820312 L 16.46875 39.941406 L 18.824219 40 L 21.175781 40 L 23.53125 39.941406 L 24.640625 39.882812 L 22.71875 37.960938 L 21.152344 38 L 18.84375 38 L 16.542969 37.941406 L 14.242188 37.824219 L 11.945312 37.652344 L 9.648438 37.417969 L 7.367188 37.125 L 5.085938 36.777344 L 2.820312 36.371094 L 2.585938 36.292969 L 2.371094 36.164062 L 2.203125 35.980469 L 2.082031 35.769531 L 2.015625 35.527344 L 2.011719 35.28125 L 2.136719 34.394531 L 2.304688 33.523438 L 2.523438 32.65625 L 2.789062 31.804688 L 3.105469 30.96875 L 3.308594 30.554688 L 3.554688 30.15625 L 3.84375 29.796875 L 4.175781 29.472656 L 4.542969 29.1875 L 4.941406 28.945312 L 5.363281 28.753906 L 6.667969 28.269531 L 7.988281 27.832031 L 9.324219 27.441406 L 10.675781 27.097656 L 12.035156 26.800781 L 13.402344 26.546875 L 13.835938 26.441406 L 14.25 26.273438 L 14.636719 26.046875 L 14.980469 25.765625 L 15.277344 25.4375 L 15.53125 25.070312 L 15.71875 24.667969 L 15.847656 24.242188 L 15.914062 23.804688 L 15.914062 23.359375 L 15.84375 22.921875 L 15.714844 22.496094 L 15.523438 22.09375 L 15.273438 21.726562 L 14.957031 21.289062 L 14.683594 20.828125 L 14.171875 19.820312 L 13.714844 18.789062 L 13.308594 17.738281 L 12.957031 16.667969 L 12.65625 15.582031 L 12.40625 14.480469 L 12.214844 13.371094 L 12.074219 12.253906 L 11.992188 11.128906 L 11.960938 10.003906 L 11.996094 9.304688 L 12.085938 8.613281 L 12.238281 7.933594 L 12.449219 7.265625 L 12.71875 6.621094 L 13.039062 6 L 13.417969 5.414062 L 13.84375 4.859375 L 14.316406 4.34375 L 14.835938 3.871094 L 15.390625 3.449219 L 15.980469 3.074219 L 16.601562 2.75 L 17.25 2.484375 L 17.917969 2.273438 L 18.605469 2.125 L 19.300781 2.03125 L 19.996094 2 L 20.699219 2.03125 L 21.394531 2.125 L 22.078125 2.273438 L 22.746094 2.484375 L 23.394531 2.75 L 24.019531 3.074219 L 24.609375 3.449219 L 25.164062 3.871094 L 25.683594 4.34375 L 26.152344 4.859375 L 26.582031 5.414062 L 26.960938 6 L 27.28125 6.621094 L 27.550781 7.265625 L 27.761719 7.933594 L 27.914062 8.613281 L 28.003906 9.304688 L 28.035156 10.003906 L 28.007812 11.128906 L 27.925781 12.253906 L 27.785156 13.371094 L 27.589844 14.480469 L 27.34375 15.582031 L 27.042969 16.667969 L 26.691406 17.738281 L 26.28125 18.789062 L 25.824219 19.820312 L 25.316406 20.828125 L 25.042969 21.289062 L 24.726562 21.726562 L 24.472656 22.09375 L 24.285156 22.496094 L 24.152344 22.921875 L 24.082031 23.359375 L 24.082031 23.804688 L 24.148438 24.242188 L 24.277344 24.667969 L 24.46875 25.070312 L 24.71875 25.4375 L 25.003906 25.753906 L 26.429688 24.328125 L 26.332031 24.242188 L 26.203125 24.050781 L 26.121094 23.839844 L 26.085938 23.609375 L 26.109375 23.378906 L 26.183594 23.164062 L 26.304688 22.96875 L 26.726562 22.386719 L 27.09375 21.769531 L 27.644531 20.671875 L 28.140625 19.554688 L 28.582031 18.410156 L 28.96875 17.25 L 29.296875 16.066406 L 29.566406 14.871094 L 29.773438 13.664062 L 29.925781 12.449219 L 30.015625 11.226562 L 30.042969 10 L 30.015625 9.21875 L 29.921875 8.4375 L 29.765625 7.667969 L 29.554688 6.910156 L 29.28125 6.171875 L 28.949219 5.460938 L 28.566406 4.773438 L 28.128906 4.121094 L 27.636719 3.507812 L 27.105469 2.929688 L 26.527344 2.394531 L 25.90625 1.910156 L 25.25 1.472656 L 24.558594 1.089844 L 23.84375 0.761719 L 23.105469 0.488281 L 22.347656 0.277344 L 21.570312 0.125 L 20.789062 0.03125 Z M 29 26 L 22 33 L 29 40 L 32 40 L 26 34 L 40 34 L 40 32 L 26 32 L 32 26 Z M 29 26 "/>
</g>
</svg>
